<?xml version="1.0" standalone="no"?>
<!DOCTYPE svg PUBLIC "-//W3C//DTD SVG 20010904//EN"
 "http://www.w3.org/TR/2001/REC-SVG-20010904/DTD/svg10.dtd">
<svg version="1.0" xmlns="http://www.w3.org/2000/svg"
 width="700.000000pt" height="700.000000pt" viewBox="0 0 700.000000 700.000000"
 preserveAspectRatio="xMidYMid meet">
<metadata>
Created by potrace 1.14, written by Peter Selinger 2001-2017
</metadata>
<g transform="translate(0.000000,700.000000) scale(0.100000,-0.100000)"
fill="#000000" stroke="none">
<path d="M960 6993 c-71 -7 -187 -36 -264 -65 -373 -143 -636 -477 -686 -870
-14 -114 -14 -5002 0 -5116 42 -333 244 -634 535 -799 87 -49 183 -87 289
-116 l81 -22 2520 -3 c1704 -2 2550 0 2611 7 167 20 337 82 483 179 74 49 192
162 253 242 68 88 152 264 185 385 l28 100 3 2520 c2 1703 0 2550 -7 2611 -20
167 -80 332 -177 481 -51 78 -214 239 -294 292 -140 91 -302 151 -462 171 -76
9 -5006 13 -5098 3z m4058 -1049 c220 -57 394 -223 470 -449 l26 -80 6 -526 5
-525 58 -64 c124 -138 246 -352 305 -540 59 -186 82 -356 82 -599 -1 -232 -30
-350 -121 -486 -62 -93 -141 -163 -238 -214 -129 -66 -160 -73 -416 -81 -259
-8 -294 -16 -397 -90 -112 -79 -164 -190 -178 -374 -5 -66 -12 -142 -16 -168
l-7 -47 165 -3 c160 -3 166 -4 206 -30 22 -15 54 -49 69 -75 23 -40 28 -60 28
-114 0 -89 -37 -151 -114 -191 l-53 -28 -979 0 c-923 0 -984 1 -1076 19 -281
55 -515 200 -685 425 -73 96 -160 272 -185 373 l-18 73 -41 0 c-64 0 -208 28
-287 55 -387 136 -637 537 -589 947 47 400 345 713 748 783 103 18 156 19 261
4 153 -21 306 -84 425 -176 l58 -44 67 54 c177 142 418 269 613 322 36 10 67
20 69 22 3 2 -122 130 -276 286 -270 272 -282 285 -322 368 -129 269 -82 558
124 765 89 90 152 130 270 170 70 24 95 28 200 27 102 0 132 -4 200 -26 143
-47 189 -82 451 -339 l241 -238 6 133 c9 193 40 295 126 420 41 60 148 158
212 195 150 85 339 109 507 66z"/>
<path d="M4771 5509 c-46 -14 -124 -94 -139 -145 -8 -28 -12 -123 -12 -287 l0
-247 23 -4 c145 -30 194 -43 267 -68 47 -17 102 -39 123 -49 l37 -19 0 327 c0
371 -1 376 -78 445 -60 54 -138 70 -221 47z"/>
<path d="M3190 5274 c-46 -20 -87 -60 -112 -108 -25 -49 -27 -140 -3 -187 9
-19 214 -232 454 -474 470 -472 461 -462 461 -564 0 -79 -57 -166 -128 -194
-21 -8 -92 -18 -162 -22 -159 -9 -265 -27 -388 -66 -211 -68 -403 -189 -558
-352 -178 -187 -278 -370 -342 -627 -23 -93 -26 -125 -26 -275 -1 -166 0 -172
31 -251 95 -250 297 -411 555 -444 48 -6 305 -10 610 -10 l528 0 14 23 c32 49
48 137 44 232 -3 82 -8 101 -41 167 -77 157 -233 258 -399 258 -170 0 -276
176 -198 329 46 91 131 124 284 110 186 -18 370 -99 516 -229 l67 -59 24 25
c79 85 226 177 348 219 112 38 179 47 403 54 l206 6 44 31 c26 19 54 53 71 84
26 51 27 56 27 225 0 196 -10 290 -46 413 -52 178 -137 324 -274 466 -215 224
-504 345 -825 346 -48 0 -84 7 -115 21 -34 15 -148 123 -455 429 -279 278
-422 414 -447 425 -47 19 -123 19 -168 -1z m1760 -1575 c76 -38 120 -112 120
-199 0 -128 -94 -222 -221 -222 -179 0 -284 184 -193 339 57 98 189 135 294
82z"/>
<path d="M1841 3490 c-229 -48 -392 -282 -354 -505 33 -195 179 -342 371 -376
73 -13 92 -8 92 23 0 44 40 211 75 316 41 122 102 255 163 356 23 37 42 71 42
75 0 14 -115 82 -164 97 -65 19 -168 26 -225 14z"/>
</g>
</svg>
